<svg xmlns="http://www.w3.org/2000/svg" version="1.1" xmlns:xlink="http://www.w3.org/1999/xlink" xmlns:svgjs="http://svgjs.dev/svgjs" width="100%" height="100%" viewBox="0 0 1000 600"><rect width="1000" height="600" x="0" y="0" fill="#6892e7"/><g><rect width="333.3333333333333" height="333.3333333333333" y="327.32720545515417" fill="#d95448" transform="matrix(0.4096950492514263,0,0,0.40969504925142625,0,97.61315414733104)" x="305.10498046875"/><path d="M522.2828913319038 563.1145203232774L496.1581470914921 568.9938658959727L474.0722576358015 468.86605455576455L447.206204605789 549.6687126222434L450.5037506009095 563.1145203232774L428.0599879364462 568.9938658959727L383.88820902506507 422.6748482520229L414.2563070266396 418.99386667607445L438.18268727030437 522.0613508026304L459.3483313320078 423.4161570416236L487.8759385456081 427.097138617572L484.19495696965964 438.1400833454173L508.6837093985388 521.3200420130297L530.0282900646287 418.99386667607445L559.6550792766024 422.6748482520229L518.422973151569 550.767894620617L522.2828913319038 563.1145203232774Z " fill="#f2f2f2" transform="matrix(0.4096950492514263,0,0,0.40969504925142625,0,97.61315414733104)"/><path d="M833.8782143124228 536.1943039249137L812.7158737777164 540.9568658847791L794.8252062415263 459.8483650291579L773.0623687640543 525.3025317906126L775.7335448198048 536.1943039249137L757.5529822077968 540.9568658847791L721.7716471354166 422.43119345751956L746.371314997678 419.4494155348212L765.7528714952173 502.9391973703751L782.8980945507328 423.0316904002852L806.0068734516451 426.01346832298356L803.0250955289467 434.9588020910786L822.8622014313428 502.33870042760947L840.1523720247673 419.4494155348212L864.151542944263 422.43119345751956L830.7514888518156 526.1929238091964L833.8782143124228 536.1943039249137ZM896.0607080753614 538.7205324427553L877.8594386722235 540.8119183468702L874.8776607495251 453.44996657003435L896.0607080753614 455.976195087876L896.0607080753614 464.4659794511144Q898.8975384601508 460.9044113767803 901.7964892183297 458.66807793475647Q904.6954399765087 456.4317444927327 909.1681068605562 455.3756981451104Q913.6407737446037 454.3403585886179 920.9502710134407 454.19541105070897L920.9502710134407 454.19541105070897L924.3875983409957 472.37597366271694Q919.4593820520915 471.48558164413345 915.4422645729007 471.48558164413345L915.4422645729007 471.48558164413345Q900.3884274215 471.48558164413345 896.0607080753614 483.5576408728358L896.0607080753614 483.5576408728358L896.0607080753614 538.7205324427553ZM962.2603193174908 431.6664223014325L962.2603193174908 431.6664223014325Q962.2603193174908 436.88453366615465 958.5330969141179 440.6117560695276Q954.805874510745 444.3389784729005 949.5877631460228 444.3389784729005L949.5877631460228 444.3389784729005Q944.3696517813007 444.3389784729005 940.6424293779278 440.6117560695276Q936.9152069745548 436.88453366615465 936.9152069745548 431.6664223014325L936.9152069745548 431.6664223014325Q936.9152069745548 426.4483109367104 940.6424293779278 422.7210885333374Q944.3696517813007 418.9938661299645 949.5877631460228 418.9938661299645L949.5877631460228 418.9938661299645Q954.805874510745 418.9938661299645 958.5330969141179 422.7210885333374Q962.2603193174908 426.4483109367104 962.2603193174908 431.6664223014325ZM957.3321030285866 538.7205324427553L938.9858860875398 540.8119183468702L938.9858860875398 453.44996657003435L960.313880951285 455.976195087876L957.3321030285866 538.7205324427553ZM1022.4756679230936 528.2843097133111L1019.4938900003954 540.3563689420134Q1002.2037194069708 540.3563689420134 994.459379524407 533.5024210780332Q986.6943328507134 526.648473214053 986.6943328507134 513.6653151756373L986.6943328507134 513.6653151756373L986.6943328507134 469.8497451448753L975.3677181026857 469.8497451448753L972.3859401799873 458.3574760678087L986.6943328507134 456.8665871064596L986.6943328507134 430.03058580217436L1007.7324326386407 433.0123637248727L1006.9869881579662 454.77520120234476L1021.8958777714579 453.2843122409956L1021.8958777714579 469.8497451448753L1006.3864912152004 469.8497451448753L1004.8956022538513 510.9941391198866L1004.8956022538513 512.4850280812358Q1004.8956022538513 519.7945253500727 1008.6849450306138 524.0394175316919Q1012.4949945985061 528.2843097133111 1022.4756679230936 528.2843097133111L1022.4756679230936 528.2843097133111ZM1106.4209991635043 513.975917042585L1111.7840580661352 524.1015379050814Q1107.456338719997 529.9201462125693 1102.610949595612 533.5024210780332Q1097.7655604712272 537.0846959434972 1091.5121095500126 538.7205324427553Q1085.258658628798 540.3563689420134 1076.147670531664 540.3563689420134L1076.147670531664 540.3563689420134Q1063.185219284378 540.3563689420134 1053.9499904404652 534.6205877990451Q1044.6940548054224 528.8848066560768 1039.786545307648 519.1112012427877Q1034.8583290187437 509.3583026206285 1034.8583290187437 497.2655366007963L1034.8583290187437 497.2655366007963Q1034.8583290187437 485.048529834185 1039.931492845557 475.2749244208959Q1045.0046566723702 465.5220257987367 1054.1570583517637 459.8483650291579Q1063.330166822287 454.19541105070897 1075.5678803800283 454.19541105070897L1075.5678803800283 454.19541105070897Q1087.4949920708218 454.19541105070897 1096.0676035985794 459.62059032672954Q1104.6402151263374 465.06647639388 1109.2578295482936 475.12997688298697Q1113.8754439702502 485.1934773720939 1113.8754439702502 499.06702742909323L1113.8754439702502 499.06702742909323L1113.8754439702502 501.59325594693485L1059.913546285862 501.59325594693485L1056.6211664962157 489.9767461230892L1093.2928935871796 486.9949682003908Q1092.8580509734527 479.08497398878825 1088.9030538676516 474.0946373264945Q1084.9480567618502 469.1043006642007 1076.3133248607028 469.1043006642007L1076.3133248607028 469.1043006642007Q1066.3119447449853 469.1043006642007 1059.8307191213426 476.4759183064272Q1053.3494934976995 483.8475359486537 1053.3494934976995 497.43119092983505L1053.3494934976995 497.43119092983505Q1053.3494934976995 507.12196917860473 1056.9938887365531 513.4582472643388Q1060.6589907665366 519.7945253500727 1066.2498243715959 522.8384236461607Q1071.8406579766554 525.9030287333784 1077.4936119551044 525.9030287333784L1077.4936119551044 525.9030287333784Q1087.039442665965 525.9030287333784 1094.5767146372302 522.6934761082516Q1102.0932798173658 519.483923483125 1106.4209991635043 513.975917042585L1106.4209991635043 513.975917042585ZM1228.528946456228 538.5755849048464L1205.7100626311335 540.6669708089612L1197.8207752106607 516.8127474273745L1146.819948657841 516.8127474273745L1136.3837259283969 540.6669708089612L1120.8743393721393 538.7205324427553L1163.8202241754475 419.4494155348212L1186.9290030763598 425.1230763044L1183.8022776157525 432.1219717062892L1228.528946456228 538.5755849048464ZM1192.002166903173 499.06702742909323L1175.89228340415 450.3025343182972L1152.6385569653287 503.3947467752318L1192.002166903173 499.06702742909323ZM1315.8908982330636 459.70341749124896L1306.055172446385 459.70341749124896Q1305.1647804278014 451.64847574173746 1302.8456198212584 446.885913781872Q1300.526459214715 442.1026450308767 1297.7103356210555 439.72136405094403L1297.7103356210555 439.72136405094403Q1294.1280607555918 436.59463859033673 1289.5725667070246 435.18657679350696Q1285.0377794495876 433.75780820554735 1278.1631247944774 433.75780820554735L1278.1631247944774 433.75780820554735Q1268.6380008747467 433.75780820554735 1263.7097845858425 439.0587467347888Q1258.781568296938 444.3389784729005 1258.781568296938 451.5035282038285L1258.781568296938 451.5035282038285Q1258.781568296938 456.12114262578496 1263.482009883414 460.22108726949523Q1268.18245146989 464.32103191320545 1275.9267913524536 466.86796722217696L1275.9267913524536 466.86796722217696L1293.8174588886438 472.66586873853487Q1307.6910089456433 477.1385356225824 1315.3732284548173 484.5929804293283Q1323.0554479639916 492.04742523607416 1323.0554479639916 505.46542588821677L1323.0554479639916 505.46542588821677Q1323.0554479639916 522.4657014058233 1311.9359011272622 531.9287049521647Q1300.8370610816628 541.4124152896359 1280.2545106985922 541.4124152896359L1280.2545106985922 541.4124152896359Q1262.819392567259 541.4124152896359 1251.2650031168027 533.2125260022153Q1239.7106136663467 525.0126367147948 1235.2379467822993 511.42898173361345L1235.2379467822993 511.42898173361345L1246.274666454509 504.14019125590636Q1250.5816790095178 514.1208645804938 1259.4648924042233 520.0015932613712Q1268.327399007799 525.9030287333784 1280.2545106985922 525.9030287333784L1280.2545106985922 525.9030287333784Q1290.4008383522187 525.9030287333784 1296.6542892734333 520.6020902041369Q1302.9284469857778 515.3218584660252 1302.9284469857778 507.7017593302405L1302.9284469857778 507.7017593302405Q1302.9284469857778 501.4483084090259 1297.7103356210555 496.9756415249784Q1292.4922242563334 492.50297464093086 1283.2362886212907 489.2313016424146L1283.2362886212907 489.2313016424146L1266.401667432723 483.4126933349268Q1252.6730649136325 478.62942458393155 1246.274666454509 471.7754767199513Q1239.8555612042555 464.9215288559711 1239.8555612042555 452.538867760321L1239.8555612042555 452.538867760321Q1239.8555612042555 443.44858645431697 1244.4731756262122 435.9941416475711Q1249.0907900481686 428.5396968408252 1257.9740034428742 424.0670299567777Q1266.8365100464498 419.5943630727301 1279.2191711420999 419.5943630727301L1279.2191711420999 419.5943630727301Q1293.237668737008 419.5943630727301 1304.1087340801791 424.2119774946866Q1315.00050621448 428.85029870777294 1320.0736700412933 435.7042465717532L1320.0736700412933 435.7042465717532L1315.8908982330636 459.70341749124896ZM1380.8895155896619 540.3563689420134L1380.8895155896619 540.3563689420134Q1367.9270643423758 540.3563689420134 1358.4640607960346 535.0761372039018Q1348.9803504585634 529.7751986746603 1343.7622390938413 520.0844204258906Q1338.5441277291193 510.39364217712097 1338.5441277291193 497.43119092983505L1338.5441277291193 497.43119092983505Q1338.5441277291193 484.30308535351037 1343.7622390938413 474.61230710474075Q1348.9803504585634 464.9215288559711 1358.4640607960346 459.55846995334Q1367.9270643423758 454.19541105070897 1380.8895155896619 454.19541105070897L1380.8895155896619 454.19541105070897Q1394.0176211659864 454.19541105070897 1403.4806247123279 459.55846995334Q1412.943628258669 464.9215288559711 1418.0167920854824 474.61230710474075Q1423.0899559122954 484.30308535351037 1423.0899559122954 497.43119092983505L1423.0899559122954 497.43119092983505Q1423.0899559122954 510.39364217712097 1418.0167920854824 520.0844204258906Q1412.943628258669 529.7751986746603 1403.4806247123279 535.0761372039018Q1394.0176211659864 540.3563689420134 1380.8895155896619 540.3563689420134ZM1383.2707965695945 526.648473214053L1383.2707965695945 526.648473214053Q1392.671679742546 525.9030287333784 1397.8897911072684 518.6763586290608Q1403.1079024719907 511.42898173361345 1403.1079024719907 500.10236698558566L1403.1079024719907 500.10236698558566Q1403.1079024719907 498.92207989118424 1403.1079024719907 497.8039131701724Q1403.1079024719907 496.6857464491605 1402.9629549340816 495.48475256362923L1402.9629549340816 495.48475256362923Q1401.9069085864592 482.66724885425225 1395.881232367673 475.3577515854153Q1389.8348493577569 468.0482543165784 1380.599620513844 468.0482543165784L1380.599620513844 468.0482543165784Q1379.9991235710781 468.0482543165784 1379.5435741662216 468.1310814810978Q1379.1087315524946 468.1932018544873 1378.5082346097292 468.1932018544873L1378.5082346097292 468.1932018544873Q1369.417953303725 468.79369879725294 1363.9720672365745 476.1031960660899Q1358.526181169424 483.4126933349268 1358.526181169424 494.8842556208636L1358.526181169424 494.8842556208636Q1358.526181169424 495.9403019684859 1358.526181169424 497.0584686894978Q1358.526181169424 498.1766354105097 1358.671128707333 499.3569225049111L1358.671128707333 499.3569225049111Q1359.7271750549553 512.0294786763791 1365.98062597617 519.4218031097355Q1372.2547836885144 526.793420751962 1381.3450649945185 526.793420751962L1381.3450649945185 526.793420751962Q1381.7799076082451 526.793420751962 1382.3182841776215 526.7105935874425Q1382.8359539558678 526.648473214053 1383.2707965695945 526.648473214053ZM1513.1437905360117 538.7205324427553L1495.5430180756393 540.6669708089612L1495.5430180756393 485.048529834185Q1495.5430180756393 477.59408502743906 1490.9875240270726 473.6390879216378Q1486.4527367696355 469.6840908158365 1480.033631519382 469.6840908158365L1480.033631519382 469.6840908158365Q1473.6352330602585 469.6840908158365 1468.334294531017 473.12141814339157Q1463.0333560017755 476.5587454709466 1460.9626768887906 483.1020914679791L1460.9626768887906 483.1020914679791L1460.9626768887906 538.7205324427553L1442.7614074856526 540.6669708089612L1439.7796295629541 453.44996657003435L1460.9626768887906 455.976195087876L1460.9626768887906 465.6669733366457Q1463.9444548114889 459.9933125670669 1469.8251834923662 457.09436180888787Q1475.7059121732436 454.19541105070897 1485.9971873647787 454.19541105070897L1485.9971873647787 454.19541105070897Q1495.0874686707825 454.19541105070897 1502.0242436992826 458.06758099199084Q1508.9610187277822 461.9397509332727 1512.7710682956745 468.56592409482465Q1516.5604110724366 475.2128040475064 1516.12556845871 483.5576408728358L1516.12556845871 483.5576408728358L1513.1437905360117 538.7205324427553ZM1591.5604085447524 533.3574735401243L1591.5604085447524 526.1929238091964Q1588.4336830841453 530.230748079517 1582.387300074229 532.6741494328392Q1576.3409170643129 535.1382575772914 1569.3420216624236 535.1382575772914L1569.3420216624236 535.1382575772914Q1558.7608513950704 535.1382575772914 1550.416014569741 530.6655906932438Q1542.050470953282 526.1929238091964 1537.2879089934163 517.3304172056206Q1532.525347033551 508.44720381091514 1532.525347033551 495.19485748781136L1532.525347033551 495.19485748781136Q1532.525347033551 481.77685683566875 1537.2879089934163 472.66586873853487Q1542.050470953282 463.5755874325309 1550.1882398673129 458.875145846055Q1558.305301990214 454.19541105070897 1568.45162964384 454.19541105070897L1568.45162964384 454.19541105070897Q1577.831806025662 454.19541105070897 1583.5882939597602 457.0115346443685Q1589.3240751027288 459.8483650291579 1591.5604085447524 464.6316337801532L1591.5604085447524 464.6316337801532L1591.5604085447524 453.8848091837612L1612.122252136693 456.8665871064596L1609.1404742139948 535.738754520057Q1608.705631600268 546.7754741922669 1604.6056869565577 554.2299189990127Q1600.5057423128476 561.6843638057587 1591.5604085447524 565.3287590446122Q1582.6150747766574 568.9938610745955 1567.8511327010747 568.9938610745955L1567.8511327010747 568.9938610745955Q1562.4880737984436 568.9938610745955 1556.7522926554752 567.6479196511553Q1550.9958047213768 566.3019782277152 1546.0882952236025 564.0656447856913Q1541.1600789346983 561.8293113436675 1538.0333534740912 559.3030828258259L1538.0333534740912 559.3030828258259L1541.0151313967892 547.5209186729414Q1546.2332427615115 550.1920947286922 1552.8594159230634 551.9107583924696Q1559.506295875745 553.6294220562471 1567.2506357583088 553.6294220562471L1567.2506357583088 553.6294220562471Q1580.5236888725426 553.6294220562471 1586.0316953130825 548.4941378560443Q1591.5604085447524 543.3381468647118 1591.5604085447524 533.3574735401243L1591.5604085447524 533.3574735401243ZM1591.7053560826614 503.08414490828403L1591.7053560826614 480.86575802595536Q1589.3240751027288 476.1031960660899 1584.7064606807721 472.45880082723636Q1580.0681394676858 468.79369879725294 1573.524793470653 468.79369879725294L1573.524793470653 468.79369879725294Q1567.8511327010747 468.79369879725294 1562.8607960387808 471.2578069417051Q1557.870459376487 473.7219150861572 1554.72302712475 479.6026437670345Q1551.5963016641426 485.5040792390417 1551.5963016641426 495.7746476394471L1551.5963016641426 495.7746476394471Q1551.5963016641426 505.46542588821677 1554.5780795868409 511.36686136022394Q1557.5598575095391 517.2475900411011 1562.6330213363522 519.8566457234623Q1567.7061851631654 522.4657014058233 1573.6697410085624 522.4657014058233L1573.6697410085624 522.4657014058233Q1578.7429048353756 522.4657014058233 1582.7600223145664 519.8566457234623Q1586.7771397937572 517.2475900411011 1589.2412479382092 512.7749231570538Q1591.7053560826614 508.30225627300615 1591.7053560826614 503.08414490828403L1591.7053560826614 503.08414490828403ZM1661.0316927853983 527.5388652326365L1661.0316927853983 527.5388652326365Q1661.0316927853983 533.0468716731766 1657.1595228441163 536.8569212410689Q1653.2873529028343 540.6669708089612 1647.7586396711645 540.6669708089612L1647.7586396711645 540.6669708089612Q1642.2506332306243 540.6669708089612 1638.3784632893426 536.8569212410689Q1634.4855865569307 533.0468716731766 1634.4855865569307 527.5388652326365L1634.4855865569307 527.5388652326365Q1634.4855865569307 522.0308587920965 1638.3784632893426 518.1379820596848Q1642.2506332306243 514.2658121184029 1647.7586396711645 514.2658121184029L1647.7586396711645 514.2658121184029Q1653.2873529028343 514.2658121184029 1657.1595228441163 518.1379820596848Q1661.0316927853983 522.0308587920965 1661.0316927853983 527.5388652326365ZM1729.4676374695514 538.7205324427553L1709.941133434103 540.6669708089612L1709.941133434103 439.86631158885297L1677.721366436057 439.86631158885297L1673.2486995520094 426.6139652657492L1763.7580835805825 420.94030449617037L1763.7580835805825 439.86631158885297L1732.4494153922496 439.86631158885297L1729.4676374695514 538.7205324427553ZM1814.7382033422723 540.3563689420134L1814.7382033422723 540.3563689420134Q1801.7757520949863 540.3563689420134 1792.3127485486452 535.0761372039018Q1782.829038211174 529.7751986746603 1777.6109268464515 520.0844204258906Q1772.3928154817295 510.39364217712097 1772.3928154817295 497.43119092983505L1772.3928154817295 497.43119092983505Q1772.3928154817295 484.30308535351037 1777.6109268464515 474.61230710474075Q1782.829038211174 464.9215288559711 1792.3127485486452 459.55846995334Q1801.7757520949863 454.19541105070897 1814.7382033422723 454.19541105070897L1814.7382033422723 454.19541105070897Q1827.8663089185966 454.19541105070897 1837.329312464938 459.55846995334Q1846.7923160112796 464.9215288559711 1851.8654798380926 474.61230710474075Q1856.938643664906 484.30308535351037 1856.938643664906 497.43119092983505L1856.938643664906 497.43119092983505Q1856.938643664906 510.39364217712097 1851.8654798380926 520.0844204258906Q1846.7923160112796 529.7751986746603 1837.329312464938 535.0761372039018Q1827.8663089185966 540.3563689420134 1814.7382033422723 540.3563689420134ZM1817.1194843222052 526.648473214053L1817.1194843222052 526.648473214053Q1826.5203674951567 525.9030287333784 1831.7384788598788 518.6763586290608Q1836.9565902246009 511.42898173361345 1836.9565902246009 500.10236698558566L1836.9565902246009 500.10236698558566Q1836.9565902246009 498.92207989118424 1836.9565902246009 497.8039131701724Q1836.9565902246009 496.6857464491605 1836.8116426866918 495.48475256362923L1836.8116426866918 495.48475256362923Q1835.7555963390696 482.66724885425225 1829.7299201202836 475.3577515854153Q1823.6835371103675 468.0482543165784 1814.4483082664542 468.0482543165784L1814.4483082664542 468.0482543165784Q1813.8478113236888 468.0482543165784 1813.392261918832 468.1310814810978Q1812.9574193051053 468.1932018544873 1812.3569223623394 468.1932018544873L1812.3569223623394 468.1932018544873Q1803.2666410563356 468.79369879725294 1797.820754989185 476.1031960660899Q1792.3748689220347 483.4126933349268 1792.3748689220347 494.8842556208636L1792.3748689220347 494.8842556208636Q1792.3748689220347 495.9403019684859 1792.3748689220347 497.0584686894978Q1792.3748689220347 498.1766354105097 1792.5198164599437 499.3569225049111L1792.5198164599437 499.3569225049111Q1793.575862807566 512.0294786763791 1799.8293137287806 519.4218031097355Q1806.1034714411248 526.793420751962 1815.193752747129 526.793420751962L1815.193752747129 526.793420751962Q1815.6285953608558 526.793420751962 1816.1669719302317 526.7105935874425Q1816.684641708478 526.648473214053 1817.1194843222052 526.648473214053ZM1956.0827595946262 535.593806982148L1941.7743669238998 540.2114214041045Q1938.0471445205271 537.2296434814061 1936.0178789898018 534.4756402611362Q1934.0093202502062 531.7216370408662 1932.6633788267663 527.8287603084543L1932.6633788267663 527.8287603084543Q1928.0457644048097 534.8483625014735 1921.2746437053488 537.6023657217435Q1914.4828162147583 540.3563689420134 1907.1733189459214 540.3563689420134L1907.1733189459214 540.3563689420134Q1896.1365992737115 540.3563689420134 1887.5639877459535 535.5109798176286Q1878.991376218196 530.6655906932438 1874.0838667204216 521.0576396089936Q1869.1556504315172 511.42898173361345 1869.1556504315172 497.43119092983505L1869.1556504315172 497.43119092983505Q1869.1556504315172 483.2677457970179 1874.3737617962393 473.6390879216378Q1879.5918731609613 464.0311368373876 1888.1644846887193 459.1029205484833Q1896.7370962164769 454.19541105070897 1906.8834238701033 454.19541105070897L1906.8834238701033 454.19541105070897Q1914.772711290576 454.19541105070897 1920.1564769843371 456.26609016369395Q1925.5195358869682 458.3574760678087 1929.246758290341 463.5755874325309L1929.246758290341 463.5755874325309L1929.246758290341 419.4494155348212L1950.4090988250473 422.43119345751956L1947.427320902349 514.2658121184029Q1947.28237336444 520.0844204258906 1949.6015339709834 525.7580811954695Q1951.8999877863967 531.4110351739184 1956.0827595946262 535.593806982148L1956.0827595946262 535.593806982148ZM1929.8472552331064 506.5214722358391L1929.8472552331064 480.72081048804637Q1927.4452674620443 475.95824852818095 1922.8276530400876 472.2931464981976Q1918.210038618131 468.648751259344 1911.6459858299686 468.648751259344L1911.6459858299686 468.648751259344Q1905.9930318515198 468.648751259344 1900.6092661577586 471.40275447961403Q1895.246207255128 474.15675769988405 1891.7467595541834 480.493035785618Q1888.247311853239 486.82931387135204 1888.247311853239 497.576138467744L1888.247311853239 497.576138467744Q1888.247311853239 508.1573087350972 1891.6018120162744 514.3486392829222Q1894.9563121793099 520.5399698307474 1900.4021982464606 523.2111458864979Q1905.8273775224811 525.9030287333784 1911.7909333678776 525.9030287333784L1911.7909333678776 525.9030287333784Q1916.864097194691 525.9030287333784 1920.9019214650116 523.2939730510172Q1924.9190389442024 520.6849173686562 1927.3831470886544 516.2122504846087Q1929.8472552331064 511.7395836005612 1929.8472552331064 506.5214722358391L1929.8472552331064 506.5214722358391ZM2047.026986236926 535.593806982148L2032.7185935661996 540.2114214041045Q2028.991371162827 537.2296434814061 2026.9621056321016 534.4756402611362Q2024.9535468925064 531.7216370408662 2023.6076054690661 527.8287603084543L2023.6076054690661 527.8287603084543Q2020.9364294133152 532.4670815215406 2016.0082131244112 535.2210847418107Q2011.100703626637 537.9750879620808 2005.0543206167208 539.1760818476121Q1999.0079376068047 540.3563689420134 1992.7544866855897 540.3563689420134L1992.7544866855897 540.3563689420134Q1980.0819305141217 540.3563689420134 1973.6628252638684 534.5377606345257Q1967.2644268047452 528.7398591181677 1966.9538249377974 518.3036363887236L1966.9538249377974 518.3036363887236L1966.9538249377974 517.703139445958Q1966.9538249377974 505.77602775516453 1974.573924073582 498.92207989118424Q1982.173316418237 492.04742523607416 1995.7362646082884 489.0656473133758L1995.7362646082884 489.0656473133758Q2004.9714934522012 486.9949682003908 2011.3077715379354 484.5308600559387Q2017.6440496236696 482.0667519114866 2017.6440496236696 478.9400264508793L2017.6440496236696 478.9400264508793Q2017.6440496236696 468.93864633516193 2001.989715529503 468.93864633516193L2001.989715529503 468.93864633516193Q1994.1004281090304 468.93864633516193 1986.645983302284 472.00325142237966Q1979.1915384955387 475.06785650959745 1974.4082697445433 479.2299215266972L1974.4082697445433 479.2299215266972L1968.4447138991463 468.5038037214351Q1973.6628252638684 461.64985585745484 1982.8359337343918 457.9226334540819Q1992.0090422049157 454.19541105070897 2003.6462588198906 454.19541105070897L2003.6462588198906 454.19541105070897Q2020.9364294133152 454.19541105070897 2029.6539884789822 460.53168913644294Q2038.3715475446488 466.86796722217696 2038.3715475446488 480.4309154122285L2038.3715475446488 480.4309154122285L2038.3715475446488 514.2658121184029Q2038.3715475446488 520.0844204258906 2040.6078809866726 525.7580811954695Q2042.8442144286964 531.4110351739184 2047.026986236926 535.593806982148L2047.026986236926 535.593806982148ZM1987.5363753208676 515.1562041369864L1987.5363753208676 516.2122504846087Q1987.681322858777 520.2293679637996 1989.9176563008004 523.0661983485891Q1992.1539897428243 525.9030287333784 1996.6266566268719 525.9030287333784L1996.6266566268719 525.9030287333784Q2003.1907094150342 525.9030287333784 2009.4441603362488 522.1758063300055Q2015.7183180485931 518.4485839266325 2018.099599028526 512.7749231570538L2018.099599028526 512.7749231570538Q2018.8450435092004 511.1390866577956 2019.0728182116286 508.67497851334343Q2019.3005929140572 506.21087036889134 2019.3005929140572 503.5396943131407L2019.3005929140572 503.5396943131407Q2019.3005929140572 499.66752437185886 2018.9899910471095 496.5200921201217Q2018.7000959712918 493.3933666595144 2018.7000959712918 493.3933666595144L2018.7000959712918 493.3933666595144Q2015.4077161816454 495.9403019684859 2010.2724319814429 497.721086005653Q2005.13714778124 499.50187004282003 1999.463487011661 501.158413333208L1999.463487011661 501.158413333208Q1993.9554805711214 502.64930229455723 1990.7459279459945 506.0659228309824Q1987.5363753208676 509.50325015853747 1987.5363753208676 515.1562041369864L1987.5363753208676 515.1562041369864ZM2063.426764811767 568.9938610745955L2059.554594870485 555.720807960362Q2068.1893267716323 555.1203110175964 2073.635212838783 552.2834806328069Q2079.0810989059332 549.4466502480175 2082.4977194423586 544.829035826061Q2085.9350467699132 540.2114214041045 2088.1713802119375 534.3928130966167L2088.1713802119375 534.3928130966167L2052.534992677466 457.61203158713414L2075.0432746356123 453.44996657003435L2096.08137442354 513.975917042585L2119.48004840027 453.44996657003435L2135.734879437202 457.61203158713414L2104.716106324687 542.903304250985Q2099.642942497874 556.6111999789455 2089.5173216353774 562.8025305267705Q2079.3709939817513 568.9938610745955 2063.426764811767 568.9938610745955L2063.426764811767 568.9938610745955Z " fill="#f2f2f2" transform="matrix(0.4096950492514263,0,0,0.40969504925142625,0,97.61315414733104)"/></g></svg>